<?xml version="1.0" encoding="utf-8"?>
<svg viewBox="0 0 500 500" xmlns="http://www.w3.org/2000/svg">
  <path style="fill: rgb(216, 216, 216); stroke: rgb(0, 0, 0);" d="M 223.629 149.974 C 216.753 156.024 116.647 144.346 131.193 106.819 C 156.776 52.199 246.497 61.314 246.004 62.067 C 185.652 73.444 161.942 100.792 163.692 112.147 C 169.397 135.269 222.26 150.895 223.629 149.974 Z"/>
  <ellipse style="fill: rgb(216, 216, 216); stroke: rgb(0, 0, 0);" cx="161.756" cy="82.045" rx="31.567" ry="31.567"/>
  <path style="fill: rgb(216, 216, 216); stroke: rgb(0, 0, 0); transform-origin: 297.894px 131.757px;" d="M 282.293 152.326 C 281.534 152.147 288.456 110.131 297.775 111.211 C 306.51 110.979 314.063 152.074 313.524 152.171 C 312.985 152.267 306.842 128.08 298.409 127.708 C 289.977 127.335 282.199 151.792 282.293 152.326 Z"/>
  <path style="fill: rgb(216, 216, 216); stroke: rgb(0, 0, 0);" d="M 248.094 152.077 C 247.335 151.899 254.257 109.882 263.576 110.962 C 272.311 110.731 279.977 151.938 279.438 152.035 C 278.899 152.131 272.262 120.979 263.829 120.607 C 255.397 120.234 248.001 151.545 248.094 152.077 Z"/>
  <ellipse style="fill: rgb(216, 216, 216); stroke: rgb(0, 0, 0);" cx="297.266" cy="120.438" rx="3.047" ry="3.047"/>
  <path style="fill: rgb(216, 216, 216); stroke: rgb(0, 0, 0); transform-box: fill-box; transform-origin: 50% 50%;" d="M 217.774 152.077 C 217.017 151.899 223.937 109.882 233.257 110.962 C 241.992 110.729 249.657 151.938 249.118 152.035 C 248.579 152.131 241.942 120.978 233.511 120.606 C 225.078 120.233 217.682 151.543 217.774 152.077 Z" transform="matrix(-1, 0, 0, -1, -0.000029, 0.000011)"/>
  <path style="fill: rgb(216, 216, 216); stroke: rgb(0, 0, 0);" d="M 156.956 95.724 C 158.439 97.933 159.592 98.847 162.006 99.844 C 165.409 101.249 170.951 99.981 170.587 99.618"/>
  <path style="fill: rgb(216, 216, 216); stroke: rgb(0, 0, 0);" d="M 151.864 74.679 C 152.421 73.844 156.415 74.07 157.556 74.529 C 160.709 75.578 162.472 78.041 161.9 77.974"/>
  <path style="fill: rgb(216, 216, 216); stroke: rgb(0, 0, 0);" d="M 175.83 80.521 C 176.387 79.686 179.857 79.088 180.998 79.547 C 183.232 79.677 185.989 82.31 185.417 82.243"/>
</svg>