<?xml version="1.0" encoding="utf-8"?>
<svg viewBox="0 23.114 501.521 282.847" xmlns="http://www.w3.org/2000/svg">
  <path style="fill: rgb(216, 216, 216); stroke: rgb(0, 0, 0);" d="M 254.763 294.561 C 236.36 310.753 -31.557 279.498 7.373 179.065 C 75.84 32.882 315.965 57.276 314.645 59.291 C 153.123 89.74 89.668 162.934 94.35 193.322 C 109.62 255.206 251.098 297.026 254.763 294.561 Z"/>
  <ellipse style="fill: rgb(216, 216, 216); stroke: rgb(0, 0, 0);" cx="89.169" cy="112.759" rx="84.483" ry="84.483"/>
  <path style="fill: rgb(216, 216, 216); stroke: rgb(0, 0, 0); transform-origin: 453.522px 245.806px;" d="M 411.767 300.855 C 409.736 300.377 428.26 187.928 453.203 190.817 C 476.58 190.198 496.795 300.181 495.352 300.441 C 493.911 300.698 477.467 235.966 454.899 234.969 C 432.332 233.971 411.516 299.427 411.767 300.855 Z"/>
  <path style="fill: rgb(216, 216, 216); stroke: rgb(0, 0, 0);" d="M 320.24 300.19 C 318.207 299.713 336.733 187.263 361.674 190.152 C 385.052 189.535 405.568 299.816 404.127 300.078 C 402.683 300.333 384.92 216.961 362.352 215.966 C 339.785 214.967 319.991 298.766 320.24 300.19 Z"/>
  <ellipse style="fill: rgb(216, 216, 216); stroke: rgb(0, 0, 0);" cx="451.84" cy="215.514" rx="8.154" ry="8.154"/>
  <path style="fill: rgb(216, 216, 216); stroke: rgb(0, 0, 0); transform-box: fill-box; transform-origin: 50% 50%;" d="M 239.092 300.19 C 237.066 299.713 255.587 187.263 280.531 190.152 C 303.909 189.527 324.422 299.816 322.98 300.078 C 321.538 300.333 303.774 216.958 281.21 215.962 C 258.641 214.964 238.845 298.759 239.092 300.19 Z" transform="matrix(-1, 0, 0, -1, -0.000003, 0.000034)"/>
  <path style="fill: rgb(216, 216, 216); stroke: rgb(0, 0, 0);" d="M 76.323 149.37 C 80.292 155.283 83.377 157.728 89.839 160.395 C 98.945 164.157 113.777 160.762 112.804 159.791"/>
  <path style="fill: rgb(216, 216, 216); stroke: rgb(0, 0, 0);" d="M 62.695 93.047 C 64.185 90.812 74.876 91.417 77.927 92.645 C 86.368 95.453 91.085 102.044 89.554 101.865"/>
  <path style="fill: rgb(216, 216, 216); stroke: rgb(0, 0, 0);" d="M 126.836 108.681 C 128.326 106.447 137.614 104.846 140.668 106.074 C 146.648 106.422 154.026 113.469 152.495 113.291"/>
</svg>