<?xml version="1.0" standalone="no"?>
<!DOCTYPE svg PUBLIC "-//W3C//DTD SVG 20010904//EN"
 "http://www.w3.org/TR/2001/REC-SVG-20010904/DTD/svg10.dtd">
<svg version="1.0" xmlns="http://www.w3.org/2000/svg"
 width="300.000000pt" height="209.000000pt" viewBox="0 0 300.000000 209.000000"
 preserveAspectRatio="xMidYMid meet">
<metadata>
Created by potrace 1.10, written by Peter Selinger 2001-2011
</metadata>
<g transform="translate(0.000000,209.000000) scale(0.050000,-0.050000)"
fill="#000000" stroke="none">
<path d="M1020 4109 c-752 -169 -1172 -1011 -846 -1693 l73 -155 -82 -165
c-182 -366 -149 -624 119 -925 98 -109 419 -339 556 -397 510 -218 1004 -351
1790 -484 393 -66 932 -55 1007 20 21 21 -60 70 -115 70 -28 0 -110 22 -182
49 -71 26 -218 75 -325 109 -110 34 -291 113 -416 182 -121 67 -255 135 -299
150 -90 32 -277 148 -318 197 -15 18 -90 75 -167 126 -95 63 -160 126 -205
195 -36 56 -85 120 -110 142 -38 34 -100 131 -100 156 0 5 54 13 120 19 151
14 449 190 635 376 134 135 131 135 156 -51 7 -55 25 -144 41 -199 15 -54 28
-128 28 -165 0 -37 30 -145 67 -241 38 -96 97 -265 134 -375 122 -371 246
-490 419 -400 142 74 252 323 387 880 26 110 62 241 78 290 36 109 65 409 38
392 -10 -6 -38 -86 -62 -177 -59 -227 -198 -605 -242 -662 -20 -25 -59 -97
-86 -159 -182 -411 -462 -144 -676 646 -13 50 -30 99 -37 110 -7 11 -33 76
-57 144 l-44 124 58 116 c81 161 121 307 136 496 l12 162 213 97 c474 216
1049 404 1576 515 372 78 264 101 -464 99 -659 -2 -867 -14 -1070 -62 -82 -20
-210 -48 -284 -62 l-134 -26 -156 152 c-198 194 -238 225 -377 288 -244 112
-553 150 -789 96z m560 -108 c165 -46 353 -165 594 -377 310 -272 306 -1002
-9 -1412 -93 -122 -454 -376 -600 -422 -210 -67 -630 20 -893 185 -271 170
-310 204 -334 295 -12 44 -34 94 -49 111 -143 160 -190 637 -89 905 142 377
452 642 849 726 76 16 141 31 144 34 12 12 304 -22 387 -45z m2138 -430 c-254
-72 -767 -265 -1161 -438 l-72 -32 -12 75 c-7 41 -29 127 -50 191 l-39 116 43
18 c69 29 369 94 543 118 185 25 278 29 730 35 l330 5 -312 -88z m-3261 -1550
c263 -200 564 -321 802 -321 52 0 61 -8 61 -50 0 -34 33 -84 100 -152 55 -55
100 -109 100 -119 0 -33 144 -180 239 -244 50 -34 143 -105 205 -157 63 -52
153 -111 199 -131 46 -20 221 -106 388 -191 193 -98 385 -178 522 -219 226
-66 351 -113 317 -119 -180 -29 -703 29 -1080 120 -176 43 -360 84 -410 92
-165 25 -409 93 -540 150 -71 31 -215 80 -320 109 -110 31 -224 78 -270 112
-44 32 -127 86 -184 120 -412 245 -550 691 -330 1064 41 68 18 75 201 -64z
m2760 -852 c-166 -554 -433 -623 -545 -142 l-14 56 81 -65 c190 -152 346 -93
445 169 73 191 92 180 33 -18z"/>
<path d="M855 3218 c-72 -42 -42 -81 51 -67 105 15 241 -18 297 -74 43 -43 97
-37 97 11 0 96 -336 194 -445 130z"/>
<path d="M1844 3016 c-55 -28 -50 -90 7 -78 123 26 247 11 296 -35 49 -46 94
-44 92 3 -4 90 -283 167 -395 110z"/>
<path d="M1087 2390 c-12 -32 44 -89 143 -144 43 -25 109 -34 235 -35 209 -1
236 33 41 52 -156 15 -230 40 -320 108 -74 57 -83 59 -99 19z"/>
<path d="M3758 2174 c-107 -72 -174 -220 -327 -724 -71 -230 -182 -785 -162
-805 20 -21 34 9 74 168 22 86 49 162 59 168 11 7 41 94 68 195 88 329 284
644 401 644 154 0 305 -269 500 -890 87 -276 120 -333 101 -170 -31 263 -94
513 -225 900 -162 478 -311 634 -489 514z m208 -110 c43 -45 154 -277 154
-322 0 -5 -36 25 -80 68 -104 101 -268 108 -364 16 -91 -87 -49 49 77 249 41
66 144 61 213 -11z"/>
<path d="M5080 2206 c-188 -68 -404 -628 -531 -1370 -32 -189 -31 -291 2 -206
8 22 30 76 49 120 19 44 46 116 60 160 80 251 283 558 410 618 174 83 343
-116 544 -636 38 -100 78 -203 88 -228 69 -176 28 194 -55 496 -221 804 -387
1111 -567 1046z m159 -175 c76 -110 122 -216 212 -487 68 -206 78 -277 26
-177 -15 27 -71 96 -124 152 l-98 103 -132 -4 c-170 -4 -190 -16 -285 -164
l-80 -124 14 80 c7 44 34 126 60 182 26 55 54 132 61 170 60 309 228 441 346
269z"/>
<path d="M5060 1994 c-154 -78 -103 -314 67 -314 123 0 200 162 112 233 -25
21 -62 53 -82 72 -44 41 -35 41 -97 9z m96 -105 c54 -38 56 -72 7 -116 -46
-42 -99 -24 -115 39 -25 100 24 135 108 77z"/>
</g>
</svg>
